<?xml version="1.0" encoding="UTF-8"?>
<svg id="Layer_1" xmlns="http://www.w3.org/2000/svg" version="1.1" viewBox="0 0 2048 512">
  <!-- Generator: Adobe Illustrator 29.4.0, SVG Export Plug-In . SVG Version: 2.1.0 Build 152)  -->
  <path d="M548.07,210.06v176.37c0,25,2.73,40.82,8.2,47.46,7.22,8.6,16.89,12.89,29,12.89h24.32v10.55h-160.25v-10.55h12.01c7.81,0,14.94-1.95,21.39-5.86,6.45-3.9,10.89-9.18,13.33-15.82,2.44-6.64,3.66-19.53,3.66-38.67v-176.37h-52.15v-21.09h52.15v-17.58c0-26.76,4.29-49.41,12.89-67.97,8.59-18.55,21.73-33.54,39.4-44.97,17.67-11.43,37.55-17.14,59.62-17.14,20.51,0,39.35,6.64,56.54,19.92,11.33,8.79,16.99,18.65,16.99,29.59,0,5.86-2.54,11.38-7.62,16.55-5.08,5.18-10.55,7.76-16.41,7.76-4.5,0-9.23-1.61-14.21-4.83s-11.09-10.15-18.31-20.8c-7.23-10.64-13.87-17.82-19.92-21.53-6.06-3.71-12.79-5.57-20.21-5.57-8.99,0-16.6,2.39-22.85,7.18-6.25,4.79-10.74,12.21-13.48,22.27-2.74,10.06-4.1,35.99-4.1,77.78v19.34h69.14v21.09h-69.14Z"/>
  <path d="M795.04,418.65c-27.54,21.29-44.82,33.6-51.86,36.91-10.55,4.88-21.78,7.32-33.69,7.32-18.56,0-33.84-6.34-45.85-19.04-12.01-12.69-18.02-29.39-18.02-50.1,0-13.08,2.93-24.41,8.79-33.98,8.01-13.28,21.92-25.78,41.75-37.5,19.82-11.72,52.78-25.97,98.88-42.77v-10.55c0-26.76-4.25-45.12-12.74-55.08s-20.85-14.94-37.06-14.94c-12.3,0-22.07,3.32-29.3,9.96-7.42,6.64-11.13,14.26-11.13,22.85l.59,16.99c0,8.99-2.3,15.92-6.88,20.8-4.59,4.88-10.6,7.32-18.02,7.32s-13.14-2.54-17.72-7.62c-4.59-5.08-6.88-12.01-6.88-20.8,0-16.8,8.59-32.23,25.78-46.29,17.18-14.06,41.31-21.09,72.36-21.09,23.83,0,43.36,4.01,58.59,12.01,11.52,6.06,20.02,15.53,25.49,28.42,3.52,8.4,5.27,25.59,5.27,51.56v91.11c0,25.59.49,41.26,1.46,47.02.97,5.76,2.59,9.62,4.83,11.57,2.24,1.96,4.83,2.93,7.76,2.93,3.12,0,5.86-.68,8.2-2.05,4.1-2.54,12.01-9.67,23.73-21.39v16.41c-21.88,29.3-42.77,43.95-62.7,43.95-9.57,0-17.19-3.32-22.85-9.96-5.67-6.64-8.6-17.97-8.79-33.98ZM824.05,50.1l-86.43,101.07h-9.96l30.76-101.07h65.62Z"/>
  <path d="M988.99,238.18c19.53-19.53,31.05-30.76,34.57-33.69,8.79-7.42,18.26-13.18,28.42-17.29,10.15-4.1,20.21-6.15,30.18-6.15,16.79,0,31.25,4.88,43.36,14.65,12.11,9.77,20.21,23.93,24.32,42.48,20.11-23.44,37.11-38.82,50.98-46.14,13.87-7.32,28.12-10.99,42.77-10.99s26.9,3.66,37.94,10.99c11.03,7.32,19.78,19.29,26.22,35.89,4.29,11.33,6.45,29.1,6.45,53.32v115.43c0,16.8,1.27,28.32,3.81,34.57,1.95,4.3,5.57,7.96,10.84,10.99,5.27,3.03,13.87,4.54,25.78,4.54v10.55h-132.42v-10.55h5.57c11.52,0,20.51-2.24,26.95-6.74,4.49-3.12,7.71-8.1,9.67-14.94.78-3.32,1.17-12.79,1.17-28.42v-115.43c0-21.87-2.64-37.3-7.91-46.29-7.62-12.5-19.83-18.75-36.62-18.75-10.35,0-20.75,2.59-31.2,7.76-10.45,5.18-23.1,14.79-37.94,28.86l-.59,3.22.59,12.6v128.03c0,18.36,1.03,29.79,3.08,34.28,2.05,4.5,5.91,8.25,11.57,11.28,5.66,3.03,15.33,4.54,29,4.54v10.55h-135.64v-10.55c14.84,0,25.05-1.76,30.62-5.27s9.42-8.79,11.57-15.82c.97-3.32,1.46-12.99,1.46-29v-115.43c0-21.87-3.22-37.6-9.67-47.17-8.6-12.5-20.61-18.75-36.04-18.75-10.55,0-21,2.83-31.35,8.5-16.21,8.6-28.71,18.26-37.5,29v143.85c0,17.58,1.22,29,3.66,34.28,2.44,5.27,6.05,9.23,10.84,11.87,4.78,2.64,14.5,3.96,29.15,3.96v10.55h-132.71v-10.55c12.3,0,20.9-1.32,25.78-3.96,4.88-2.64,8.59-6.83,11.13-12.6,2.54-5.76,3.81-16.94,3.81-33.54v-102.54c0-29.49-.88-48.53-2.64-57.13-1.37-6.45-3.52-10.89-6.45-13.33-2.93-2.44-6.94-3.66-12.01-3.66-5.47,0-12.01,1.46-19.63,4.39l-4.39-10.55,80.86-32.81h12.6v57.13Z"/>
  <path d="M1528.05,418.65c-27.54,21.29-44.82,33.6-51.86,36.91-10.55,4.88-21.78,7.32-33.69,7.32-18.56,0-33.84-6.34-45.85-19.04-12.01-12.69-18.02-29.39-18.02-50.1,0-13.08,2.93-24.41,8.79-33.98,8.01-13.28,21.92-25.78,41.75-37.5,19.82-11.72,52.78-25.97,98.88-42.77v-10.55c0-26.76-4.25-45.12-12.74-55.08s-20.85-14.94-37.06-14.94c-12.3,0-22.07,3.32-29.3,9.96-7.42,6.64-11.13,14.26-11.13,22.85l.59,16.99c0,8.99-2.3,15.92-6.88,20.8-4.59,4.88-10.6,7.32-18.02,7.32s-13.14-2.54-17.72-7.62c-4.59-5.08-6.88-12.01-6.88-20.8,0-16.8,8.59-32.23,25.78-46.29,17.18-14.06,41.31-21.09,72.36-21.09,23.83,0,43.36,4.01,58.59,12.01,11.52,6.06,20.02,15.53,25.49,28.42,3.52,8.4,5.27,25.59,5.27,51.56v91.11c0,25.59.49,41.26,1.46,47.02.97,5.76,2.59,9.62,4.83,11.57,2.24,1.96,4.83,2.93,7.76,2.93,3.12,0,5.86-.68,8.2-2.05,4.1-2.54,12.01-9.67,23.73-21.39v16.41c-21.88,29.3-42.77,43.95-62.7,43.95-9.57,0-17.19-3.32-22.85-9.96-5.67-6.64-8.6-17.97-8.79-33.98ZM1528.05,399.61v-102.25c-29.49,11.72-48.54,20.02-57.13,24.9-15.43,8.6-26.47,17.58-33.11,26.95-6.64,9.38-9.96,19.63-9.96,30.76,0,14.06,4.2,25.74,12.6,35.01,8.4,9.28,18.06,13.92,29,13.92,14.84,0,34.37-9.76,58.59-29.3Z"/>
</svg>