<?xml version="1.0" encoding="UTF-8"?>
<svg id="Layer_1" xmlns="http://www.w3.org/2000/svg" version="1.1" viewBox="0 0 512 512">
  <!-- Generator: Adobe Illustrator 29.4.0, SVG Export Plug-In . SVG Version: 2.1.0 Build 152)  -->
  <path d="M293.65,419.9c-27.54,21.29-44.82,33.6-51.86,36.91-10.55,4.88-21.78,7.32-33.69,7.32-18.56,0-33.84-6.34-45.85-19.04-12.01-12.69-18.02-29.39-18.02-50.1,0-13.08,2.93-24.41,8.79-33.98,8.01-13.28,21.92-25.78,41.75-37.5,19.82-11.72,52.78-25.97,98.88-42.77v-10.55c0-26.76-4.25-45.12-12.74-55.08s-20.85-14.94-37.06-14.94c-12.3,0-22.07,3.32-29.3,9.96-7.42,6.64-11.13,14.26-11.13,22.85l.59,16.99c0,8.99-2.3,15.92-6.88,20.8-4.59,4.88-10.6,7.32-18.02,7.32s-13.14-2.54-17.72-7.62c-4.59-5.08-6.88-12.01-6.88-20.8,0-16.8,8.59-32.23,25.78-46.29,17.18-14.06,41.31-21.09,72.36-21.09,23.83,0,43.36,4.01,58.59,12.01,11.52,6.06,20.02,15.53,25.49,28.42,3.52,8.4,5.27,25.59,5.27,51.56v91.11c0,25.59.49,41.26,1.46,47.02.97,5.76,2.59,9.62,4.83,11.57,2.24,1.96,4.83,2.93,7.76,2.93,3.12,0,5.86-.68,8.2-2.05,4.1-2.54,12.01-9.67,23.73-21.39v16.41c-21.88,29.3-42.77,43.95-62.7,43.95-9.57,0-17.19-3.32-22.85-9.96-5.67-6.64-8.6-17.97-8.79-33.98ZM322.65,51.35l-86.43,101.07h-9.96l30.76-101.07h65.62Z"/>
</svg>